<svg xmlns="http://www.w3.org/2000/svg" xml:space="preserve" id="camper-trailer" x="0" y="0" style="enable-background:new 0 0 612 572" version="1.1" viewBox="0 0 612 572">
  <circle cx="311.75" cy="286" r="184.56" style="fill:#da9027"></circle>
  <path d="M177.34 193.6c7.24-24.77 26.94-42.51 50.07-42.44 20.97.07 39.04 14.77 47.49 36.01a85.142 85.142 0 0 1 37.71-8.61c31.31.11 58.62 17.02 73.46 42.16 14.37-11.68 32.48-18.64 52.16-18.57 16.11.05 31.15 4.81 43.91 12.99 9.16 22 14.18 46.16 14.1 71.48-.1 28.53-6.66 55.52-18.3 79.59-11.98 6.73-25.71 10.53-40.3 10.48-31.47-.11-58.83-18.13-73.18-44.7-14.51 11.16-32.69 17.8-52.42 17.73-30.47-.1-57.15-16.13-72.23-40.16-13.15 27.87-41.53 47.12-74.38 47.01a81.66 81.66 0 0 1-26.05-4.35c-7.98-20.75-12.33-43.29-12.25-66.85.11-33.29 9.04-64.49 24.55-91.4 4.65-.8 9.42-1.24 14.3-1.22 3.85.02 7.64.32 11.36.85z" style="fill:#f7ca16"></path>
  <path d="m190.37 347.42-1.94-1.23c-1.81-1.15-4-1.22-5.83-.4l4.75-7.47c1.58-2.49.84-5.83-1.65-7.41l-1.7-1.08a5.327 5.327 0 0 0-3.92-.72l4-6.29c1.58-2.49.84-5.83-1.65-7.41l-.84-.53c-2.49-1.58-5.83-.84-7.41 1.65l-2.42 3.81-1.01-6.06c-.48-2.91-3.26-4.9-6.18-4.42l-.98.16c-2.91.48-4.9 3.26-4.42 6.18l1.02 6.14-3.61-2.89c-2.31-1.85-5.7-1.47-7.55.83l-.62.77c-1.85 2.31-1.47 5.7.83 7.55l11.8 9.45c0 .02 0 .04-.01.07l-4.19-3.35c-2.31-1.85-5.7-1.47-7.55.83l-1.26 1.57c-1.85 2.31-1.47 5.7.83 7.55l13.06 10.47c-.01.07-.03.14-.05.21l-4.46-3.57c-2.63-2.11-6.51-1.68-8.62.95l-1.44 1.79c-2.11 2.63-1.68 6.51.95 8.62l14.91 11.95c-.51 2.43.49 5.04 2.7 6.45l1.94 1.23a6.146 6.146 0 0 0 6.3.16c2.15.4 4.46-.37 5.92-2.19l1.44-1.79c1.64-2.05 1.74-4.84.47-6.98l10.25-16.13c1.83-2.85.98-6.66-1.86-8.47z" style="fill:#5f8d3d"></path>
  <linearGradient id="SVGID_1_" x1="387.856" x2="386.681" y1="424.529" y2="455.084" gradientTransform="rotate(-9.425 -217.237 1711.969)" gradientUnits="userSpaceOnUse">
    <stop offset=".006" style="stop-color:#4d7335"></stop>
    <stop offset="1" style="stop-color:#5f8d3d"></stop>
  </linearGradient>
  <path d="m181.54 352.5-8.67 10.74-2.02-12.65 7.87-13.85c.52-.91-.74-1.77-1.4-.95l-7.38 9.13-1.31-8.17 5.87-10.34c.37-.66-.54-1.28-1.01-.69l-5.53 6.84-1.69-10.58c-.11-.71-1.17-.58-1.11.14l1.09 10.35-6.96-4.38c-.64-.4-1.3.48-.74.98l8.09 7.17.95 9.06-9.91-6.24c-.88-.56-1.8.66-1.02 1.36l11.48 10.17 1.32 12.53-10.79-6.79c-1.03-.65-2.1.77-1.18 1.58l12.6 11.16 1.55 14.71a6.2 6.2 0 0 0 2.55-.77c.61.11 1.24.13 1.85.06l-2.1-13.15 9.24-16.27c.6-1.1-.87-2.1-1.64-1.15z" style="fill:url(#SVGID_1_)"></path>
  <path d="m244.17 330.59-2.3-1.46a7.262 7.262 0 0 0-6.9-.47l5.62-8.85c1.88-2.95 1-6.91-1.96-8.78l-2.01-1.28a6.33 6.33 0 0 0-4.65-.86l4.74-7.45c1.88-2.95 1-6.91-1.96-8.78l-.99-.63c-2.95-1.88-6.91-1-8.78 1.96l-2.87 4.51-1.19-7.18c-.57-3.45-3.87-5.81-7.32-5.23l-1.16.19c-3.45.57-5.81 3.87-5.23 7.32l1.21 7.28-4.28-3.43c-2.73-2.19-6.76-1.74-8.94.99l-.73.92c-2.19 2.73-1.74 6.76.99 8.94l13.97 11.2c0 .03-.01.05-.01.08l-4.96-3.97c-2.73-2.19-6.76-1.74-8.94.99l-1.49 1.86c-2.19 2.73-1.74 6.76.99 8.94l15.47 12.4c-.02.08-.04.16-.05.25l-5.28-4.23c-3.12-2.5-7.71-1.99-10.21 1.13l-1.7 2.12c-2.5 3.12-1.99 7.71 1.13 10.21l17.66 14.15c-.61 2.88.58 5.97 3.2 7.64l2.3 1.46a7.265 7.265 0 0 0 7.47.18c2.55.47 5.28-.43 7.01-2.59l1.7-2.12c1.94-2.42 2.06-5.73.56-8.26l12.14-19.1c2.13-3.4 1.13-7.91-2.25-10.05z" style="fill:#5f8d3d"></path>
  <linearGradient id="SVGID_2_" x1="439.883" x2="438.491" y1="415.233" y2="451.427" gradientTransform="rotate(-9.425 -217.237 1711.969)" gradientUnits="userSpaceOnUse">
    <stop offset=".006" style="stop-color:#4d7335"></stop>
    <stop offset="1" style="stop-color:#5f8d3d"></stop>
  </linearGradient>
  <path d="m233.72 336.6-10.27 12.72-2.4-14.98 9.32-16.41c.61-1.08-.88-2.09-1.66-1.13l-8.74 10.82-1.55-9.68 6.96-12.24c.44-.78-.64-1.52-1.2-.82l-6.55 8.11-2.01-12.54c-.13-.84-1.39-.69-1.31.16l1.29 12.26-8.25-5.19c-.76-.48-1.54.57-.87 1.16l9.59 8.49 1.13 10.73-11.74-7.39c-1.05-.66-2.13.79-1.2 1.61l13.6 12.04 1.56 14.84-12.78-8.05c-1.22-.77-2.48.92-1.4 1.87l14.92 13.22 1.83 17.42c1.06-.08 2.09-.39 3.02-.91.73.13 1.47.15 2.19.07l-2.49-15.58 10.95-19.27c.71-1.27-1.03-2.45-1.94-1.33z" style="fill:url(#SVGID_2_)"></path>
  <path d="m381.53 354.31 1.45-1.02h-8.62c-5.09 0-7.33-6.4-3.34-9.55l14.26-11.27 1.67-1.32h-6.65c-4.91 0-7.25-6.02-3.62-9.31l12.34-11.21 1.79-1.62h-4.56c-4.7 0-7.13-5.58-3.94-9l10.46-11.22 1.79-1.92h-2.36c-4.44 0-6.97-5.06-4.29-8.59l8.6-11.33 1.69-2.23c-4.14 0-6.73-4.46-4.66-8.03l6.71-11.58 6.71-11.58c2.07-3.57 7.24-3.57 9.31 0L423 245.1l6.71 11.58c2.07 3.57-.52 8.03-4.66 8.03l1.69 2.23 8.6 11.33c2.68 3.53.15 8.59-4.29 8.59h-2.36l1.79 1.92L440.95 300c3.2 3.43.76 9-3.94 9h-4.56l1.79 1.62 12.34 11.21c3.63 3.3 1.29 9.31-3.62 9.31h-6.65l1.67 1.32 14.26 11.27c3.99 3.15 1.75 9.55-3.34 9.55h-8.62l1.45 1.02 16.23 11.4c4.29 3.01 2.15 9.73-3.1 9.73H368.4c-5.25 0-7.39-6.72-3.1-9.73l16.23-11.39z" style="fill:#5f8d3d"></path>
  <path d="m408.06 365.25 16.23-11.39 1.45-1.02h-8.62c-5.09 0-7.33-6.4-3.34-9.55l14.26-11.27 1.67-1.32h-6.65c-4.91 0-7.25-6.02-3.62-9.31l12.34-11.21 1.79-1.62H429c-4.7 0-7.14-5.58-3.94-9l10.46-11.22 1.79-1.92h-2.36c-4.44 0-6.97-5.06-4.29-8.59l8.6-11.33 1.69-2.23c-4.14 0-6.73-4.46-4.66-8.03l6.71-11.58 6.71-11.58c2.07-3.57 7.24-3.57 9.31 0l6.71 11.58 6.71 11.58c2.07 3.57-.52 8.03-4.66 8.03l1.69 2.23 8.6 11.33c2.68 3.53.15 8.59-4.29 8.59h-2.36l1.79 1.92 10.46 11.22c3.2 3.43.76 9-3.94 9h-4.56l1.79 1.62 12.34 11.21c3.63 3.3 1.29 9.31-3.62 9.31h-6.65l1.67 1.32 8.03 6.35c-1.45 4.91-3.1 9.75-4.94 14.48H483l.63.44A182.87 182.87 0 0 1 473.44 375h-62.3c-5.23-.01-7.37-6.74-3.08-9.75z" style="fill:#395c2c"></path>
  <path d="m347.78 370.44 1.45-1.02h-8.62c-5.09 0-7.33-6.4-3.34-9.55l14.26-11.27 1.67-1.32h-6.65c-4.91 0-7.25-6.02-3.62-9.31l12.34-11.21 1.79-1.62h-4.56c-4.7 0-7.13-5.58-3.94-9l10.46-11.22 1.79-1.92h-2.36c-4.44 0-6.97-5.06-4.29-8.59l8.6-11.33 1.69-2.23c-4.14 0-6.73-4.46-4.66-8.03l6.71-11.58 6.71-11.58c2.07-3.57 7.24-3.57 9.31 0l6.71 11.58 6.71 11.58c2.07 3.57-.52 8.03-4.66 8.03l1.69 2.23 8.6 11.33c2.68 3.53.15 8.59-4.29 8.59h-2.36l1.79 1.92 10.46 11.22c3.2 3.43.76 9-3.94 9h-4.56l1.79 1.62 12.34 11.21c3.63 3.3 1.29 9.31-3.62 9.31h-6.65l1.67 1.32 14.26 11.27c3.99 3.15 1.75 9.55-3.34 9.55h-8.62l1.45 1.02 16.23 11.4c4.29 3.01 2.15 9.73-3.1 9.73H334.63c-5.25 0-7.39-6.72-3.1-9.73l16.25-11.4z" style="fill:#395c2c"></path>
  <path d="m371.09 323.14-1.94-1.91c-1.8-1.78-4.33-2.42-6.65-1.92l7.37-7.46c2.46-2.49 2.43-6.54-.06-9l-1.7-1.67a6.36 6.36 0 0 0-4.36-1.82l6.21-6.28c2.46-2.49 2.43-6.54-.06-9l-.84-.82c-2.49-2.46-6.54-2.43-9 .06l-3.76 3.81.35-7.27c.17-3.5-2.55-6.49-6.05-6.66l-1.17-.06c-3.5-.17-6.49 2.55-6.66 6.05l-.36 7.37-3.46-4.25c-2.21-2.72-6.23-3.13-8.95-.93l-.91.74c-2.72 2.21-3.13 6.23-.93 8.95l11.29 13.9c-.01.02-.02.05-.03.08l-4.01-4.93c-2.21-2.72-6.23-3.13-8.95-.93l-1.85 1.5c-2.72 2.21-3.13 6.23-.93 8.95l12.5 15.39c-.03.08-.07.15-.1.23l-4.27-5.25c-2.52-3.1-7.12-3.58-10.22-1.06l-2.11 1.72c-3.1 2.52-3.58 7.12-1.06 10.22l14.27 17.57c-1.2 2.69-.7 5.96 1.51 8.14l1.94 1.91c1.97 1.94 4.78 2.52 7.26 1.76 2.39 1 5.25.69 7.4-1.05l2.11-1.72c2.41-1.96 3.23-5.17 2.29-7.96l15.91-16.1c2.85-2.87 2.82-7.49-.02-10.3z" style="fill:#5f8d3d"></path>
  <linearGradient id="SVGID_3_" x1="284.344" x2="282.952" y1="352.942" y2="389.136" gradientTransform="rotate(2.807 1154.233 1625.514)" gradientUnits="userSpaceOnUse">
    <stop offset=".006" style="stop-color:#4d7335"></stop>
    <stop offset="1" style="stop-color:#5f8d3d"></stop>
  </linearGradient>
  <path d="m359.6 326.8-12.73 10.26.83-15.15 12.58-14.06c.83-.92-.42-2.23-1.38-1.46l-10.83 8.72.53-9.78 9.39-10.5c.6-.67-.3-1.62-1-1.05l-8.12 6.54.69-12.68c.05-.85-1.21-.96-1.32-.12l-1.33 12.25-6.96-6.82c-.64-.63-1.63.23-1.1.95l7.57 10.33-1.17 10.72-9.91-9.71c-.88-.87-2.25.32-1.52 1.32l10.74 14.65-1.61 14.83-10.79-10.57c-1.03-1.01-2.62.37-1.77 1.53l11.79 16.07-1.9 17.41c1.05.14 2.13.06 3.15-.25.68.28 1.4.46 2.13.53l.86-15.75 14.78-16.52c.97-1.07-.48-2.59-1.6-1.69z" style="fill:url(#SVGID_3_)"></path>
  <path d="m318.91 320.73-1.4-1.17a4.858 4.858 0 0 0-4.55-.9l4.5-5.4c1.5-1.8 1.25-4.51-.55-6.01l-1.23-1.02a4.244 4.244 0 0 0-3.02-.97l3.79-4.55c1.5-1.8 1.25-4.51-.55-6.01l-.6-.5c-1.8-1.5-4.51-1.25-6.01.55l-2.29 2.76-.18-4.88a4.281 4.281 0 0 0-4.42-4.11l-.79.03a4.281 4.281 0 0 0-4.11 4.42l.18 4.94-2.55-2.65a4.274 4.274 0 0 0-6.03-.11l-.57.55a4.274 4.274 0 0 0-.11 6.03l8.34 8.64c0 .02-.01.03-.01.05l-2.96-3.07a4.274 4.274 0 0 0-6.03-.11l-1.15 1.11a4.274 4.274 0 0 0-.11 6.03l9.23 9.57c-.02.05-.04.11-.06.16l-3.15-3.27c-1.86-1.93-4.96-1.98-6.89-.13l-1.31 1.27c-1.93 1.86-1.98 4.96-.13 6.89l10.54 10.93a4.895 4.895 0 0 0 1.47 5.36l1.4 1.17c1.42 1.19 3.34 1.41 4.95.76 1.66.53 3.55.16 4.88-1.12l1.31-1.27c1.5-1.45 1.86-3.64 1.08-5.45l9.71-11.67c1.72-2.05 1.44-5.13-.62-6.85z" style="fill:#4c7838"></path>
  <linearGradient id="SVGID_4_" x1="354.458" x2="353.525" y1="377.112" y2="401.385" gradientTransform="rotate(-2.092 -1376.925 1775.256)" gradientUnits="userSpaceOnUse">
    <stop offset=".006" style="stop-color:#4d7335"></stop>
    <stop offset="1" style="stop-color:#5f8d3d"></stop>
  </linearGradient>
  <path d="m311.44 323.83-7.92 7.58-.31-10.17 7.61-10.11c.5-.66-.41-1.47-1.01-.89l-6.74 6.45-.2-6.57 5.68-7.55c.36-.48-.29-1.06-.73-.65l-5.05 4.83-.26-8.51c-.02-.57-.87-.58-.89 0l-.19 8.26-5.04-4.16c-.46-.38-1.07.25-.68.7l5.65 6.47-.17 7.23-7.17-5.92c-.64-.53-1.48.34-.94.97l8.01 9.18-.23 10-7.81-6.45c-.75-.62-1.73.4-1.09 1.12l8.79 10.07-.27 11.74c.71.04 1.43-.08 2.09-.35.47.15.96.23 1.45.23l-.32-10.57 8.93-11.88c.57-.78-.49-1.72-1.19-1.05z" style="fill:url(#SVGID_4_)"></path>
  <path d="M474.04 373.43c-31.37 57.13-92.1 95.85-161.87 95.85-69.98 0-130.86-38.95-162.15-96.35 44.7-26.35 100.74-42.03 161.59-42.03 61.23 0 117.59 15.88 162.43 42.53z" style="fill:#98ca3c"></path>
  <path d="M310.48 342.2c-58.25 0-112.09 14.39-155.8 38.73a185.399 185.399 0 0 0 37.22 43.78c37.45-15.5 80.33-24.33 125.92-24.33 42.46 0 82.57 7.65 118.13 21.22a185.364 185.364 0 0 0 32.85-39.26c-44.15-25.21-98.95-40.14-158.32-40.14z" style="fill:#51555a"></path>
  <linearGradient id="SVGID_5_" x1="-1441.516" x2="-1568.748" y1="-65.935" y2="-85.36" gradientTransform="rotate(-18.809 826.24 -5084.98)" gradientUnits="userSpaceOnUse">
    <stop offset=".002" style="stop-color:#fff"></stop>
    <stop offset="1" style="stop-color:#51555a"></stop>
  </linearGradient>
  <path d="M427.14 401.64c-6.14-2.48-12.35-4.79-18.45-6.88l2.06-6.04c6.22 2.12 12.54 4.48 18.78 7l-2.39 5.92zm-37.26-12.7a312.33 312.33 0 0 0-19.11-4.66l1.32-6.25c6.46 1.36 13.02 2.96 19.5 4.76l-1.71 6.15zm-38.47-8.09c-6.51-.93-13.08-1.65-19.54-2.12l.47-6.36c6.6.49 13.32 1.22 19.97 2.17l-.9 6.31zm-39.17-2.88c-6.53-.02-13.14.2-19.63.65l-.44-6.37c6.64-.46 13.4-.69 20.09-.67l-.02 6.39zM180.5 411.91l-3.08-5.59c5.86-3.22 11.9-6.28 17.94-9.07l2.68 5.79c-5.91 2.74-11.81 5.72-17.54 8.87zm92.59-31.2c-6.44.93-12.94 2.11-19.32 3.52L252.4 378c6.53-1.44 13.18-2.65 19.78-3.6l.91 6.31zm-56.94 14.73-2.26-5.97c5.81-2.2 11.76-4.23 17.68-6.03l1.36-.41 1.84 6.11-1.34.4c-5.79 1.77-11.6 3.75-17.28 5.9z" style="fill:url(#SVGID_5_)"></path>
  <ellipse cx="407.15" cy="360.53" rx="9.92" ry="18.94"></ellipse>
  <ellipse cx="406.58" cy="360.87" rx="4.39" ry="8.38" style="fill:#496582"></ellipse>
  <ellipse cx="260.43" cy="359.86" rx="9.92" ry="18.94"></ellipse>
  <ellipse cx="259.86" cy="360.2" rx="4.39" ry="8.38" style="fill:#496582"></ellipse>
  <path d="M447.3 276.5h-3.8c-3.37 0-6.12 3.21-6.12 7.14v8.42h-12.29v2.97h12.29v4.55l-12.15 6.66 1.09 2.69 11.07-6.07v6.4c0 3.92 2.76 7.14 6.12 7.14h3.8c3.37 0 6.12-3.21 6.12-7.14v-25.63c-.01-3.92-2.76-7.13-6.13-7.13z" style="fill:#2d3742"></path>
  <path d="m374.65 222.99 1.72 133.57-114.63-.67-7.45-98.84 24.64-48.09z" style="fill:#223649"></path>
  <path d="m303.84 314.07-.64-60.98c-.11-10.06 6.97-18.22 15.61-17.98l79.51 2.19c8.39.23 15.82 6.36 18.79 15.49l17.6 54.01h19.22c5.41 0 9.84 5.16 9.84 11.47v28.95c0 6.31-4.43 11.47-9.84 11.47H312.98c-5.41 0-9.84-5.16-9.84-11.47v-28.95c0-1.48.25-2.9.7-4.2z" style="fill:#f8f4d3"></path>
  <path d="M312.98 358.69c-5.41 0-9.84-5.16-9.84-11.47v-28.95c0-1.48.25-2.9.7-4.2l-.64-60.98c-.08-7.29 3.62-13.55 8.94-16.38l33.78 1.3c5.07.2 9.36 4.45 10.34 10.25l10.94 64.89 2.85.53c6.61 1.23 11.48 7.88 11.48 15.68v29.32h-68.55z" style="fill:#c1b884"></path>
  <path d="M312.69 351.32h27.72l-.07-1.51c-1.07-24.35 14.87-27.12 15.55-27.22l1.07-.17V301.8h-2.46V320c-3.9 1.1-17.05 6.46-16.67 28.45H315.1l-1.12-61.38-2.46.06 1.17 64.19z" style="fill:#f8f4d3"></path>
  <path d="m409.61 254.71 16.33 52.09h-55.88l-10.31-53.09z" style="fill:#a9c7e9"></path>
  <path d="m354.59 252.71 6.88 57.1H311.6v-39.6c0-10.16 7.16-18.34 15.88-18.14l27.11.64zM370.06 306.8l-10.31-53.09 45.82.92-25.19 18.11 5.54 34.06zM389.48 321h60.25c3.64 0 6.63 2.11 6.75 4.78l.69 14.81c.13 2.8-2.93 5.11-6.75 5.11h-13.29v9.52h-23.98v-9.52h-23.67c-3.73 0-6.75-2.21-6.75-4.94v-14.81c0-2.73 3.02-4.95 6.75-4.95z" style="fill:#6895c2"></path>
  <path d="M441.49 340.09h7.69c2.93 0 5.33-2.4 5.33-5.33v-2.26c0-2.93-2.4-5.33-5.33-5.33h-7.69c-2.93 0-5.33 2.4-5.33 5.33v2.26c0 2.93 2.4 5.33 5.33 5.33zM393.73 340.09h7.69c2.93 0 5.33-2.4 5.33-5.33v-2.26c0-2.93-2.4-5.33-5.33-5.33h-7.69c-2.93 0-5.33 2.4-5.33 5.33v2.26c0 2.93 2.4 5.33 5.33 5.33z" style="fill:#a9c7e9"></path>
  <path d="M430.82 351.79c.91 0 1.64-.86 1.64-1.91v-22.26c0-1.06-.73-1.91-1.64-1.91-.91 0-1.64.86-1.64 1.91v22.26c0 1.06.73 1.91 1.64 1.91zM417.06 351.79c.91 0 1.64-.86 1.64-1.91v-22.26c0-1.06-.73-1.91-1.64-1.91s-1.64.86-1.64 1.91v22.26c0 1.06.73 1.91 1.64 1.91zM424.13 351.79c.91 0 1.64-.86 1.64-1.91v-22.26c0-1.06-.73-1.91-1.64-1.91s-1.64.86-1.64 1.91v22.26c0 1.06.73 1.91 1.64 1.91zM345.99 355c0-13.89 5.47-25.16 12.23-25.16s12.23 11.26 12.23 25.16c0 1.25-.05 2.48-.13 3.68h-24.19c-.09-1.2-.14-2.43-.14-3.68z" style="fill:#496582"></path>
  <path d="m415.63 154.91 11.45 28.35c1.29 3.2 1.44 6.87.42 10.19l-9.37 30.47c-1.67 5.42-6.13 8.99-11.07 8.85l-83.87-2.33c-15.52-.43-28.35 14.01-28.51 32.1l-.73 79.46c-.07 7.32-5.18 13.22-11.47 13.22H178.12c-4.31 0-8.26-2.81-10.21-7.29-12.05-27.55-52.22-126.46-32.96-179.69 1.77-4.9 5.95-8.04 10.52-8.04H273.7c3.65 0 7.09-2.03 9.25-5.46l5.74-9.12c2.16-3.43 5.59-5.46 9.25-5.46h105.14c4.94 0 9.32 3.68 10.88 9.14l1.18 4.14c.13.51.3 1 .49 1.47z" style="fill:#e13d26"></path>
  <path d="m329.12 149.31 1.18 4.14c.14.5.31.99.5 1.46l11.45 28.35c1.29 3.2 1.44 6.87.42 10.19l-9.37 30.47c-.87 2.82-2.49 5.12-4.54 6.68l-5.58-.15c-15.52-.43-28.35 14.01-28.51 32.1l-.73 79.46c-.07 7.32-5.18 13.22-11.47 13.22H178.12c-4.31 0-8.26-2.81-10.21-7.29-12.05-27.55-52.22-126.46-32.96-179.69 1.77-4.9 5.95-8.04 10.52-8.04H273.7c3.65 0 7.09-2.03 9.25-5.46l5.74-9.12c2.16-3.43 5.59-5.46 9.25-5.46h20.31c4.93 0 9.31 3.68 10.87 9.14z" style="fill:#a52722"></path>
  <path d="M336.64 275.83h3.8c3.37 0 6.12 3.21 6.12 7.14v8.42h12.29v2.97h-12.29v4.55l12.15 6.66-1.09 2.69-11.07-6.07v6.4c0 3.92-2.76 7.14-6.12 7.14h-3.8c-3.37 0-6.12-3.21-6.12-7.14v-25.63c.01-3.92 2.76-7.13 6.13-7.13z" style="fill:#2d3742"></path>
  <path d="M230.13 333.07v-92.61c0-7.11 4.97-12.9 11.07-12.9h25.6c6.1 0 11.07 5.79 11.07 12.9v92.61c0 7.11-4.97 12.9-11.07 12.9h-25.6c-6.1 0-11.07-5.78-11.07-12.9zm11.07-102.64c-4.75 0-8.61 4.5-8.61 10.03v92.61c0 5.53 3.86 10.03 8.61 10.03h25.6c4.75 0 8.61-4.5 8.61-10.03v-92.61c0-5.53-3.86-10.03-8.61-10.03h-25.6z" style="fill:#721c1c"></path>
  <path d="M245.12 250.37h16.62v22.04h-16.62z" style="fill:#496582" transform="rotate(-180 253.43 261.39)"></path>
  <path d="M203.76 285.02h-36.49c-8.69 0-15.76-8.1-15.76-18.06v-21.15c0-9.96 7.07-18.06 15.76-18.06h36.49c8.69 0 15.76 8.1 15.76 18.06v21.15c-.01 9.95-7.08 18.06-15.76 18.06zm-36.49-53.64c-6.68 0-12.12 6.47-12.12 14.42v21.15c0 7.95 5.44 14.42 12.12 14.42h36.49c6.68 0 12.12-6.47 12.12-14.42V245.8c0-7.95-5.44-14.42-12.12-14.42h-36.49z" style="fill:#721c1c"></path>
  <path d="m189.79 234.39 14.23.17c5.41.07 9.78 5.28 9.7 11.58l-.26 21.15c-.08 6.31-4.57 11.41-9.98 11.34l-14.23-.17.54-44.07zM167.54 234.12l15.95.19-.54 44.08-15.95-.19c-5.41-.07-9.78-5.28-9.7-11.58l.26-21.15c.08-6.31 4.57-11.42 9.98-11.35z" style="fill:#1eb7cc"></path>
  <path d="M198.79 333.19h13.56c5.41 0 9.84 5.16 9.84 11.47v10.57h-33.24v-10.57c0-6.32 4.43-11.47 9.84-11.47z" style="fill:#223649"></path>
  <path d="M232.59 299.41v4.78h-81.75c-.54-1.57-1.09-3.16-1.63-4.78h83.38zM276.64 299.41h17.7l-.04 4.77h-17.66zM130.17 198.95h297.64c-.09.4-.19.8-.31 1.19l-2.1 6.82H129.83c.04-2.71.15-5.38.34-8.01z" style="fill:#721c1c"></path>
  <path d="M130.17 206.6h297.64c-.09.08-.19.15-.31.23l-2.1 1.31H129.83c.04-.53.15-1.04.34-1.54z" style="fill:#e13d26"></path>
  <path d="M165.19 187.59h67.59c3.64 0 6.61-2.98 6.61-6.61v-2.81c0-3.64-2.98-6.61-6.61-6.61h-67.59c-3.64 0-6.61 2.98-6.61 6.61v2.81c-.01 3.64 2.97 6.61 6.61 6.61z" style="fill:#1eb7cc"></path>
  <path d="M165.45 171.56h67.06c2.48 0 4.65 1.55 5.86 3.85-1.04-.74-2.26-1.18-3.57-1.18h-67.06c-3.78 0-6.88 3.61-6.88 8.01 0 1.52.38 2.94 1.02 4.16-1.98-1.41-3.31-3.95-3.31-6.83 0-4.4 3.1-8.01 6.88-8.01z" style="fill:#315897"></path>
  <path d="M360.34 186.59h44.38c3.64 0 6.61-2.98 6.61-6.61v-2.81c0-3.64-2.98-6.61-6.61-6.61h-44.38c-3.64 0-6.61 2.98-6.61 6.61v2.81c0 3.63 2.97 6.61 6.61 6.61z" style="fill:#1eb7cc"></path>
  <path d="M360.34 186.59h44.38c3.64 0 6.61-2.98 6.61-6.61v-2.81c0-3.64-2.98-6.61-6.61-6.61h-44.38c-3.64 0-6.61 2.98-6.61 6.61v2.81c0 3.63 2.97 6.61 6.61 6.61z" style="fill:#1eb7cc"></path>
  <path d="M409.04 181.69c0-4.41-3.09-8.01-6.88-8.01h-43.85c-1.44 0-2.78.53-3.89 1.42 1.12-2.68 3.47-4.54 6.18-4.54h43.85c3.78 0 6.88 3.61 6.88 8.01 0 2.73-1.19 5.15-2.99 6.6.44-1.05.7-2.23.7-3.48z" style="fill:#315897"></path>
  <ellipse cx="358.15" cy="361.87" rx="9.92" ry="18.94"></ellipse>
  <ellipse cx="357.58" cy="362.2" rx="4.39" ry="8.38" style="fill:#6895c2"></ellipse>
  <ellipse cx="207.7" cy="360.2" rx="9.92" ry="18.94"></ellipse>
  <ellipse cx="207.13" cy="360.53" rx="4.39" ry="8.38" style="fill:#6895c2"></ellipse>
</svg>
