<svg xmlns="http://www.w3.org/2000/svg" id="vehicle-causing-pollution-on-road" viewBox="0 0 1024 768">
  <g>
    <path d="M919.08,478.81c0-199.13-199.19-312.15-420.83-360.68C245.28,62.74,97.42,279.75,97.42,478.88c0,39.08,4.35,76.12,14.84,112.12h781.26c15.71-36,25.55-73.11,25.55-112.19Z" style="fill:#fef6ea"></path>
    <path d="M112.26,591c9.54,32,24.14,61.61,45.21,89h681.56c21.06-27.39,40.21-57,54.49-89H112.26Z" style="fill:#c1c1c1"></path>
  </g>
  <path d="M220,508v83h573.28l.47-266h2.25v-11h-24v-10h-10v-29h-2v29h-5v10h-44v-10h-7v-29h-1v29h-9v10h-36v11h4v183h-19.43l-42.31-220h-124.21l-42.31,220h-81.74v-36.56c0-22.87-20-41.47-43-41.47v-104.97h-35v183h-13V226h-21v282h-20ZM309,444.09c16,0,28,12.27,28,27.36v36.56h-28v-63.91Z" style="fill:#f7cc94"></path>
  <g>
    <path d="M357.95,591s-10.65-3.63-20.44-3.02c-9.79.6-12.21-6.65-17.65-6.65,0,0,0-51.39-3.02-62.28-3.02-10.88-3.02-48.98,5.44-54.42,8.46-5.44,22.98-19.35,24.79-32.05,0,0,7.98.52,10.88-11.49l-4.84-2.42s-2.21,7.85-5.96,8.68l1.25-12.48h-10.89s4.82,33.7-22.51,36.2c0,0-2.2-7.07,0-12.07,2.2-4.99.95-26.21.95-26.21h-34.95s3.74,30.79-5.82,32.04c-9.57,1.25-22.47-10.4-21.22-16.64,1.25-6.24-.08-17.47-.08-17.47h-5.32s4.99,13.73,0,19.56c-4.99,5.82-19.97-9.15-19.97-9.15l-2.08,4.16s12.48,9.57,15.81,9.99,26.63,22.47,32.04,22.47,5.82,22.05,3.33,27.46c-2.5,5.41-2.5,51.59-2.08,64.91s3.33,29.54-4.99,32.04-27.84,4.83-28.67,8.86h116.03Z" style="fill:#b5784e"></path>
    <path d="M309.7,581.33s0-51.39-3.02-62.28c-3.02-10.88-3.02-48.98,5.44-54.42" style="fill:none;stroke-miterlimit:10;stroke:#cc7f3a"></path>
    <path d="M252.05,358.93c-1.35-2.93-2.11-6.2-2.11-9.64,0-12.73,10.32-23.05,23.05-23.05,4.02,0,7.79,1.03,11.08,2.83,1.97-10.73,11.37-18.86,22.66-18.86,7.97,0,15,4.05,19.14,10.2-.01-.36-.03-.73-.03-1.09,0-18.48,14.98-33.46,33.46-33.46,16.42,0,30.07,11.83,32.91,27.43,6.83-8.15,17.08-13.33,28.54-13.33,20.56,0,37.23,16.67,37.23,37.23,0,3.2-.41,6.31-1.17,9.28,5.4,3,9.06,8.76,9.06,15.38,0,1.65-.23,3.24-.65,4.75,7.76,5.13,12.87,13.93,12.87,23.92,0,15.83-12.84,28.67-28.67,28.67-8.8,0-16.67-3.97-21.93-10.21-4.75,15.09-18.85,26.04-35.51,26.04-11.21,0-21.26-4.96-28.08-12.8-1.22.27-2.49.41-3.79.41-5.6,0-10.59-2.62-13.81-6.7-2.99,2.34-6.75,3.74-10.83,3.74-2.64,0-5.14-.59-7.39-1.63-4.15,6.07-11.13,10.06-19.04,10.06-7.55,0-14.25-3.63-18.45-9.23-3.52,2.18-7.68,3.45-12.13,3.45-12.73,0-23.05-10.32-23.05-23.05,0-1.89.23-3.72.66-5.48-.22,0-.44.02-.66.02-9.71,0-17.59-7.88-17.59-17.59,0-8.57,6.13-15.7,14.24-17.27Z" style="fill:#a3b763"></path>
    <path d="M294.75,386.57c.76-1.64,1.18-3.46,1.18-5.38,0-7.1-5.76-12.86-12.86-12.86-2.24,0-4.35.57-6.18,1.58-1.1-5.99-6.34-10.52-12.64-10.52-4.45,0-8.37,2.26-10.68,5.69,0-.2.02-.41.02-.61,0-10.31-8.36-18.67-18.67-18.67-9.16,0-16.77,6.6-18.36,15.3-3.81-4.55-9.53-7.44-15.92-7.44-11.47,0-20.77,9.3-20.77,20.77,0,1.79.23,3.52.65,5.18-3.01,1.67-5.05,4.89-5.05,8.58,0,.92.13,1.81.36,2.65-4.33,2.86-7.18,7.77-7.18,13.35,0,8.83,7.16,16,16,16,4.91,0,9.3-2.21,12.23-5.69,2.65,8.42,10.52,14.53,19.81,14.53,6.26,0,11.86-2.77,15.67-7.14.68.15,1.39.23,2.12.23,3.13,0,5.91-1.46,7.71-3.74,1.67,1.31,3.76,2.09,6.04,2.09,1.47,0,2.87-.33,4.12-.91,2.32,3.39,6.21,5.61,10.62,5.61s7.95-2.02,10.29-5.15c1.97,1.22,4.28,1.92,6.77,1.92,7.1,0,12.86-5.76,12.86-12.86,0-1.05-.13-2.08-.37-3.06.12,0,.25,0,.37,0,5.42,0,9.81-4.39,9.81-9.81,0-4.78-3.42-8.76-7.95-9.63Z" style="fill:#a3b763"></path>
    <path d="M250.45 354.12c1.97 2.96 3.13 6.52 3.13 10.34 0 .2 0 .41-.02.61 2.31-3.43 6.23-5.69 10.68-5.69 6.3 0 11.54 4.54 12.64 10.52 1.83-1.01 3.94-1.58 6.18-1.58 7.1 0 12.86 5.76 12.86 12.86 0 1.92-.42 3.74-1.18 5.38 4.53.87 7.95 4.85 7.95 9.63 0 5.42-4.39 9.81-9.81 9.81-.12 0-.25 0-.37 0 .24.98.37 2 .37 3.06 0 7.1-5.76 12.86-12.86 12.86-2.48 0-4.8-.71-6.77-1.92-.37.5-.78.96-1.22 1.4M399.25 318.64c1.99-2.95 5.36-4.89 9.18-4.89 5.42 0 9.93 3.9 10.87 9.05 1.58-.87 3.39-1.36 5.31-1.36 6.11 0 11.06 4.95 11.06 11.06 0 1.65-.36 3.22-1.01 4.63 3.89.75 6.83 4.17 6.83 8.28 0 4.66-3.78 8.44-8.44 8.44-.11 0-.21 0-.32 0 .21.84.32 1.72.32 2.63 0 6.11-4.95 11.06-11.06 11.06-2.14 0-4.13-.61-5.82-1.65M322.23 353.87c2.31-3.43 6.23-5.69 10.68-5.69 6.3 0 11.54 4.54 12.64 10.52 1.83-1.01 3.94-1.58 6.18-1.58 7.1 0 12.86 5.76 12.86 12.86 0 1.92-.42 3.74-1.18 5.38 4.53.87 7.95 4.85 7.95 9.63 0 5.42-4.39 9.81-9.81 9.81-.12 0-.25 0-.37 0 .24.98.37 2 .37 3.06 0 7.1-5.76 12.86-12.86 12.86-2.48 0-4.8-.71-6.77-1.92" style="fill:none;stroke-miterlimit:10;stroke:#687c28"></path>
    <path d="M286.96 460.89s.45 24.33-3.15 35.14M278.14 579.46s3.13-7.22 2.65-15.88" style="fill:none;stroke-miterlimit:10;stroke:#cc7f3a"></path>
  </g>
  <g>
    <path d="M635.63,591s12.84-4.38,24.66-3.65c11.81.73,14.73-8.02,21.29-8.02,0,0,0-61.99,3.65-75.12,3.65-13.13,3.65-59.08-6.56-65.64s-27.72-23.34-29.9-38.66c0,0-9.63.63-13.13-13.86l5.83-2.92s2.67,9.47,7.19,10.47l-1.51-15.06h13.14s-5.82,40.65,27.16,43.66c0,0,2.66-8.53,0-14.55-2.66-6.02-1.15-31.62-1.15-31.62h42.16s-4.52,37.14,7.03,38.64c11.54,1.51,27.1-12.55,25.6-20.08-1.51-7.53.1-21.08.1-21.08h6.42s-6.02,16.56,0,23.59c6.02,7.03,24.09-11.04,24.09-11.04l2.51,5.02s-15.06,11.54-19.07,12.05c-4.02.5-32.12,27.1-38.64,27.1-6.52,0-7.03,26.6-4.02,33.12,3.01,6.52,3.01,62.23,2.51,78.29-.5,16.06-4.02,35.63,6.02,38.64,10.04,3.01,33.58,5.82,34.59,10.69h-139.96Z" style="fill:#b5784e"></path>
    <path d="M693.84,579.33s0-61.99,3.65-75.12c3.65-13.13,3.65-59.08-6.56-65.64" style="fill:none;stroke-miterlimit:10;stroke:#cc7f3a"></path>
    <path d="M763.38,311.07c1.63-3.54,2.55-7.48,2.55-11.63,0-15.36-12.45-27.81-27.81-27.81-4.84,0-9.4,1.24-13.36,3.42-2.38-12.94-13.71-22.75-27.34-22.75-9.62,0-18.09,4.88-23.09,12.3.01-.44.03-.88.03-1.32,0-22.29-18.07-40.36-40.36-40.36-19.81,0-36.27,14.27-39.7,33.08-8.24-9.83-20.6-16.08-34.43-16.08-24.8,0-44.91,20.11-44.91,44.91,0,3.86.49,7.61,1.41,11.19-6.52,3.62-10.93,10.57-10.93,18.55,0,1.99.28,3.9.79,5.73-9.35,6.19-15.53,16.8-15.53,28.86,0,19.1,15.48,34.59,34.59,34.59,10.61,0,20.11-4.79,26.45-12.31,5.73,18.2,22.74,31.41,42.84,31.41,13.52,0,25.64-5.99,33.88-15.45,1.47.32,3,.5,4.57.5,6.76,0,12.77-3.16,16.66-8.09,3.6,2.82,8.14,4.51,13.07,4.51,3.19,0,6.2-.71,8.91-1.96,5.01,7.32,13.42,12.13,22.97,12.13,9.1,0,17.18-4.37,22.26-11.14,4.25,2.64,9.26,4.16,14.63,4.16,15.36,0,27.81-12.45,27.81-27.81,0-2.28-.28-4.49-.8-6.61.26,0,.53.02.8.02,11.72,0,21.22-9.5,21.22-21.22,0-10.34-7.39-18.94-17.18-20.83Z" style="fill:#a3b763"></path>
    <path d="M711.88,344.41c-.91-1.97-1.42-4.17-1.42-6.49,0-8.57,6.95-15.51,15.51-15.51,2.7,0,5.24.69,7.45,1.91,1.33-7.22,7.65-12.69,15.25-12.69,5.37,0,10.09,2.72,12.88,6.86,0-.24-.02-.49-.02-.74,0-12.44,10.08-22.52,22.52-22.52,11.05,0,20.23,7.96,22.15,18.46,4.6-5.48,11.49-8.97,19.21-8.97,13.84,0,25.06,11.22,25.06,25.06,0,2.16-.27,4.25-.78,6.24,3.64,2.02,6.1,5.9,6.1,10.35,0,1.11-.16,2.18-.44,3.2,5.22,3.45,8.66,9.37,8.66,16.1,0,10.66-8.64,19.3-19.3,19.3-5.92,0-11.22-2.67-14.76-6.87-3.2,10.16-12.69,17.52-23.9,17.52-7.55,0-14.31-3.34-18.9-8.62-.82.18-1.68.28-2.55.28-3.77,0-7.13-1.77-9.29-4.51-2.01,1.57-4.54,2.52-7.29,2.52-1.78,0-3.46-.39-4.97-1.1-2.79,4.09-7.49,6.77-12.81,6.77-5.08,0-9.59-2.44-12.42-6.21-2.37,1.47-5.17,2.32-8.16,2.32-8.57,0-15.51-6.95-15.51-15.51,0-1.27.16-2.51.44-3.69-.15,0-.3.01-.44.01-6.54,0-11.84-5.3-11.84-11.84,0-5.77,4.12-10.57,9.58-11.62Z" style="fill:#a3b763"></path>
    <path d="M765.31 305.27c-2.38 3.57-3.77 7.86-3.77 12.48 0 .25.01.49.02.74-2.79-4.14-7.51-6.86-12.88-6.86-7.6 0-13.93 5.47-15.25 12.69-2.21-1.21-4.75-1.91-7.45-1.91-8.57 0-15.51 6.95-15.51 15.51 0 2.32.51 4.51 1.42 6.49-5.46 1.05-9.58 5.85-9.58 11.62 0 6.54 5.3 11.84 11.84 11.84.15 0 .3 0 .44-.01-.29 1.18-.44 2.42-.44 3.69 0 8.57 6.95 15.51 15.51 15.51 3 0 5.79-.85 8.16-2.32.45.6.94 1.16 1.47 1.69M585.82 262.46c-2.4-3.56-6.46-5.9-11.07-5.9-6.54 0-11.97 4.7-13.11 10.91-1.9-1.04-4.09-1.64-6.41-1.64-7.37 0-13.34 5.97-13.34 13.34 0 1.99.44 3.88 1.22 5.58-4.69.9-8.24 5.03-8.24 9.99 0 5.62 4.56 10.18 10.18 10.18.13 0 .26 0 .38 0-.25 1.02-.38 2.08-.38 3.17 0 7.37 5.97 13.34 13.34 13.34 2.58 0 4.98-.73 7.02-2M678.73 304.96c-2.79-4.14-7.51-6.86-12.88-6.86-7.6 0-13.93 5.47-15.25 12.69-2.21-1.21-4.75-1.91-7.45-1.91-8.57 0-15.51 6.95-15.51 15.51 0 2.32.51 4.51 1.42 6.49-5.46 1.05-9.58 5.85-9.58 11.62 0 6.54 5.3 11.84 11.84 11.84.15 0 .3 0 .44-.01-.29 1.18-.44 2.42-.44 3.69 0 8.57 6.95 15.51 15.51 15.51 3 0 5.79-.85 8.16-2.32" style="fill:none;stroke-miterlimit:10;stroke:#687c28"></path>
    <path d="M721.27 434.05s-.54 29.35 3.8 42.39M731.9 577.07s-3.77-8.71-3.19-19.16" style="fill:none;stroke-miterlimit:10;stroke:#cc7f3a"></path>
  </g>
  <g>
    <polygon points="542 622 542 621 540 621 540 627 542 627 542 626 559 626 559 622 542 622"></polygon>
    <rect width="304.01" height="27.66" x="541.6" y="594.57" style="fill:#141414"></rect>
    <path d="M864,621.63v-47.04c0-1.42-.35-2.79-1.19-3.92l-37.45-50.84c-1.24-1.68-3.15-2.83-5.24-2.83h-40.76c-3.64,0-7.36,3.28-7.36,6.92v98.08h19.25c5.09-8,14.32-13.71,24.85-13.71,14.22,0,26.05,10.36,28.55,23.85,1.19,1.08,2.76,1.86,4.44,1.86h7.48c3.15,0,5.87-2.47,6.47-5.57l.93-5.49c.09-.39.02-.9.02-1.31Z" style="fill:#f26b4a"></path>
    <path d="M848.45,564.56l-25.41-34.28c-.85-1.15-2.01-1.52-3.44-1.52h-29.6c-2.15,0-3.9,1.75-3.9,3.9v36.13c0,2.09,1.7,3.79,3.79,3.79h56.92c1.19,0,2.16-.97,2.16-2.16v-3.17c0-.96.05-1.9-.52-2.68Z" style="fill:#d35a42"></path>
    <g>
      <path d="M844,564.89v3.07c0,1.5-.06,3.04-1.56,3.04h-50.83c-1.98,0-3.62-1.96-3.62-3.94v-32.73c0-2.02,1.66-3.33,3.68-3.33h26.78c1.3,0,2.51.44,3.28,1.48l22.31,30.84c.3.4-.04,1.06-.04,1.57Z" style="fill:#8fc2ff"></path>
      <path d="M817.03,571h-15.51v-.4s-13.52-28.59-13.52-28.59v-7.68c0-2.02,1.66-3.33,3.68-3.33h6.35l18.89,39.76.11.24Z" style="fill:#fff;opacity:.5"></path>
      <polygon points="832.13 571 828.3 571 809.41 531 813.25 531 832.13 571" style="fill:#fff;opacity:.5"></polygon>
    </g>
    <line x1="844.05" x2="831.36" y1="579.08" y2="600.91" style="stroke:#d35a42;fill:none;stroke-miterlimit:10"></line>
    <rect width="9" height="5" x="791" y="579" rx="1.74" ry="1.74" style="fill:#d35a42"></rect>
    <line x1="786.5" x2="786.5" y1="577" y2="607" style="stroke:#d35a42;fill:none;stroke-miterlimit:10"></line>
    <path d="M864,606v16h-6.63c-2.91,0-5.37-3.01-5.37-5.93v-6.3c0-2.91,2.46-3.77,5.37-3.77h6.63Z" style="fill:#fbc25f"></path>
    <rect width="3" height="17" x="861" y="581" style="fill:#fbc25f"></rect>
    <circle cx="816.11" cy="637.63" r="24.77"></circle>
    <circle cx="816.11" cy="637.63" r="12.03" style="fill:#c1c1c1"></circle>
    <circle cx="816.11" cy="637.63" r="3.6" style="fill:#8e8e8e"></circle>
    <path d="M588.46,610.47c14.15,0,25.94,9.53,28.52,23.53h17.26c2.58-14,14.37-23.53,28.52-23.53s25.94,9.53,28.52,23.53h3.92c-2.37-17-15.91-30-32.27-30h-75.29c-16.35,0-29.89,13-32.27,30h4.55c2.58-14,14.37-23.53,28.52-23.53Z" style="fill:#a8a8a8"></path>
    <path d="M846.26,562h-5.26v13h5.26c1.93,0,3.74-1.75,3.74-3.68v-6.76c0-1.93-1.81-2.56-3.74-2.56Z"></path>
    <path d="M816.11,608.17c10.54,0,19.59,5.83,24.69,13.83h4.77c-5.37-11-16.54-18.29-29.45-18.29s-24.08,7.29-29.45,18.29h4.6c5.09-8,14.32-13.83,24.85-13.83Z" style="fill:#d35a42"></path>
    <g>
      <circle cx="816.11" cy="629.97" r="1.3" style="fill:#a8a8a8"></circle>
      <circle cx="816.11" cy="644.26" r="1.3" style="fill:#a8a8a8"></circle>
    </g>
    <g>
      <circle cx="811.06" cy="632.06" r="1.3" style="fill:#a8a8a8"></circle>
      <circle cx="821.16" cy="642.17" r="1.3" style="fill:#a8a8a8"></circle>
    </g>
    <g>
      <circle cx="821.16" cy="632.06" r="1.3" style="fill:#a8a8a8"></circle>
      <circle cx="811.06" cy="642.17" r="1.3" style="fill:#a8a8a8"></circle>
    </g>
    <g>
      <circle cx="808.96" cy="637.11" r="1.3" style="fill:#a8a8a8"></circle>
      <circle cx="823.25" cy="637.11" r="1.3" style="fill:#a8a8a8"></circle>
    </g>
    <circle cx="662.75" cy="637.63" r="24.77"></circle>
    <circle cx="662.75" cy="637.63" r="12.03" style="fill:#c1c1c1"></circle>
    <circle cx="662.75" cy="637.63" r="3.6" style="fill:#8e8e8e"></circle>
    <g>
      <circle cx="662.75" cy="629.97" r="1.3" style="fill:#a8a8a8"></circle>
      <circle cx="662.75" cy="644.26" r="1.3" style="fill:#a8a8a8"></circle>
    </g>
    <g>
      <circle cx="657.7" cy="632.06" r="1.3" style="fill:#a8a8a8"></circle>
      <circle cx="667.8" cy="642.17" r="1.3" style="fill:#a8a8a8"></circle>
    </g>
    <g>
      <circle cx="667.8" cy="632.06" r="1.3" style="fill:#a8a8a8"></circle>
      <circle cx="657.7" cy="642.17" r="1.3" style="fill:#a8a8a8"></circle>
    </g>
    <g>
      <circle cx="655.61" cy="637.11" r="1.3" style="fill:#a8a8a8"></circle>
      <circle cx="669.9" cy="637.11" r="1.3" style="fill:#a8a8a8"></circle>
    </g>
    <circle cx="588.46" cy="637.63" r="24.77"></circle>
    <circle cx="588.46" cy="637.63" r="12.03" style="fill:#c1c1c1"></circle>
    <circle cx="588.46" cy="637.63" r="3.6" style="fill:#8e8e8e"></circle>
    <g>
      <circle cx="588.46" cy="629.97" r="1.3" style="fill:#a8a8a8"></circle>
      <circle cx="588.46" cy="644.26" r="1.3" style="fill:#a8a8a8"></circle>
    </g>
    <g>
      <circle cx="583.4" cy="632.06" r="1.3" style="fill:#a8a8a8"></circle>
      <circle cx="593.51" cy="642.17" r="1.3" style="fill:#a8a8a8"></circle>
    </g>
    <g>
      <circle cx="593.51" cy="632.06" r="1.3" style="fill:#a8a8a8"></circle>
      <circle cx="583.4" cy="642.17" r="1.3" style="fill:#a8a8a8"></circle>
    </g>
    <g>
      <circle cx="581.31" cy="637.11" r="1.3" style="fill:#a8a8a8"></circle>
      <circle cx="595.6" cy="637.11" r="1.3" style="fill:#a8a8a8"></circle>
    </g>
    <g>
      <rect width="55" height="25" x="707" y="611" rx="2.13" ry="2.13" style="fill:#a8a8a8"></rect>
      <g>
        <rect width="1.68" height="24.41" x="711.57" y="611.22"></rect>
        <rect width="1.68" height="24.41" x="755.57" y="611.22"></rect>
      </g>
    </g>
    <g>
      <path d="M745.45,493.61h-184.04s-17,0-17,52.01c0,48.84,17,48.84,17,48.84h184.04s14.57,0,14.57-50.43-14.57-50.43-14.57-50.43Z" style="fill:#f26b4a"></path>
      <rect width="36.37" height="9.31" x="684.46" y="484.3" style="fill:#d35a42"></rect>
      <rect width="44.05" height="4.11" x="680.61" y="480.19" rx=".85" ry=".85" style="fill:#f26b4a"></rect>
      <line x1="586.23" x2="586.11" y1="493.61" y2="594.46" style="stroke:#d35a42;fill:none;stroke-miterlimit:10"></line>
      <line x1="646.95" x2="646.84" y1="493.61" y2="594.46" style="stroke:#d35a42;fill:none;stroke-miterlimit:10"></line>
      <line x1="707.68" x2="707.56" y1="493.61" y2="594.46" style="stroke:#d35a42;fill:none;stroke-miterlimit:10"></line>
      <line x1="562" x2="738" y1="510.5" y2="510.5" style="fill:none;stroke-miterlimit:10;stroke:#fbc25f"></line>
    </g>
    <path d="M532.79 616.26c.14-.16.25-.35.31-.56 3.31-.35 5.89-3.15 5.89-6.56s-2.78-6.41-6.27-6.58c.15-.47.25-.96.25-1.47 0-2.68-2.17-4.85-4.85-4.85-1.31 0-2.5.53-3.37 1.37-.77-.97-1.72-1.8-2.78-2.44 1.61-1.1 2.67-2.96 2.67-5.06 0-3.38-2.74-6.13-6.13-6.13-2.33 0-4.36 1.3-5.39 3.22-1.12-.67-2.42-1.06-3.81-1.06-4.13 0-7.47 3.34-7.47 7.47 0 2.07.84 3.94 2.2 5.29-2.18.77-3.75 2.84-3.75 5.28 0 3.11 2.52 5.63 5.63 5.63.52 0 1.02-.09 1.49-.23 1.84 3.09 5.21 5.17 9.08 5.17.05 0 .1 0 .14 0-.09.47-.14.96-.14 1.46 0 4.18 3.39 7.57 7.57 7.57 1.44 0 2.77-.41 3.92-1.1.69 1.78 2.4 3.04 4.42 3.04 2.63 0 4.75-2.13 4.75-4.75 0-2.49-1.92-4.51-4.36-4.71ZM493.22 583.02c.18-.12.33-.28.44-.47 3.29.51 6.5-1.55 7.37-4.84s-1.05-6.9-4.38-7.96c.26-.41.49-.86.62-1.36.68-2.59-.86-5.24-3.45-5.93-1.27-.33-2.55-.13-3.61.47-.5-1.14-1.2-2.17-2.06-3.07 1.84-.66 3.33-2.18 3.87-4.21.86-3.27-1.09-6.62-4.36-7.49-2.25-.59-4.55.15-6.04 1.74-.91-.93-2.07-1.64-3.42-1.99-3.99-1.05-8.08 1.33-9.13 5.32-.53 2-.19 4.02.78 5.68-2.31.19-4.35 1.79-4.97 4.15-.79 3 1 6.08 4.01 6.88.5.13 1.01.17 1.5.16.99 3.46 3.72 6.33 7.46 7.32.05.01.09.02.14.03-.21.43-.38.89-.51 1.38-1.07 4.04 1.35 8.18 5.39 9.25 1.39.37 2.79.31 4.07-.07.21 1.89 1.55 3.56 3.5 4.07 2.54.67 5.14-.85 5.81-3.38.64-2.41-.71-4.85-3.01-5.67ZM498.7 546.01c-.18-.12-.33-.28-.44-.47-3.29.51-6.5-1.55-7.37-4.84s1.05-6.9 4.38-7.96c-.26-.41-.49-.86-.62-1.36-.68-2.59.86-5.24 3.45-5.93 1.27-.33 2.55-.13 3.61.47.5-1.14 1.2-2.17 2.06-3.07-1.84-.66-3.33-2.18-3.87-4.21-.86-3.27 1.09-6.62 4.36-7.49 2.25-.59 4.55.15 6.04 1.74.91-.93 2.07-1.64 3.42-1.99 3.99-1.05 8.08 1.33 9.13 5.32.53 2 .19 4.02-.78 5.68 2.31.19 4.35 1.79 4.97 4.15.79 3-1 6.08-4.01 6.88-.5.13-1.01.17-1.5.16-.99 3.46-3.72 6.33-7.46 7.32-.05.01-.09.02-.14.03.21.43.38.89.51 1.38 1.07 4.04-1.35 8.18-5.39 9.25-1.39.37-2.79.31-4.07-.07-.21 1.89-1.55 3.56-3.5 4.07-2.54.67-5.14-.85-5.81-3.38-.64-2.41.71-4.85 3.01-5.67Z" style="fill:#8e8e8e;opacity:.5"></path>
  </g>
  <g>
    <rect width="29.72" height="5.24" x="185.6" y="618.51"></rect>
    <path d="M460.44,623.57l-62.79,3.93-12.47-18.36,7.74-22.37s33.13-7.41,33.78-7.68,25.39,7.68,25.39,7.68l11.83,19.58-3.47,17.23Z" style="fill:#202121"></path>
    <polygon points="277.51 627.47 214.73 623.75 207.69 613.87 213.93 595.58 233.94 579.08 255.66 583 283.85 597.73 289.06 615.8 277.51 627.47" style="fill:#202121"></polygon>
    <path d="M206.06,574.23v2.05c0,1.26-.71,2.4-1.84,2.96l-13.55,6.69c-.24-6.72,1.03-11.63,2.5-15h9.59c1.82,0,3.3,1.48,3.3,3.3Z" style="fill:#ff9b50"></path>
    <path d="M396.88,620.56c0,2.38.27,4.7.77,6.93l-.56.04h-118.55s-1.02-.06-1.02-.06c.49-2.23.76-4.54.76-6.91,0-.99-.05-1.98-.14-2.95h118.89c-.09.97-.14,1.95-.14,2.95Z" style="fill:#202121"></path>
    <path d="M451.32,584.57c-.63-1.37.42-2.92,1.93-2.85l11.67.56,4.92,14.62c-6.34-4.61-16.8-8.57-16.8-8.57l-1.72-3.77Z" style="fill:#ff9b50"></path>
    <path d="M191.96,618.47l22.77,5.28c-.1-1.05-.16-2.11-.16-3.19,0-17.59,14.26-31.85,31.85-31.85,5.36,0,10.41,1.32,14.84,3.66.25.13.5.26.75.41,8.9,5,15.15,14.16,16.13,24.84h118.89c1.49-16.21,15.11-28.91,31.71-28.91,17.59,0,31.85,14.26,31.85,31.85,0,1.01-.06,2.02-.15,3.01h5.12s7.64-6.51,8.2-14.99l-3.93-11.67c-6.34-4.62-16.8-8.57-16.8-8.57l-1.72-3.77c-.63-1.37.42-2.92,1.93-2.85l11.67.56-1.06-3.13s-7.92-3.68-20.94-5.09c-13.02-1.42-43.01-4.25-43.01-4.25,0,0-31.69-24.86-44.21-33.1-2.54-1.67-5.51-2.55-8.55-2.55h-128.12c-5.1,0-9.73,3.02-11.78,7.69l-10.2,23.15s-2.09,1.82-3.89,5.93h9.59c1.82,0,3.3,1.48,3.3,3.3v2.05c0,1.25-.71,2.4-1.84,2.96l-13.55,6.7c.06,1.6.2,3.29.44,5.1,0,0-8.2,9.62.85,27.44Z" style="fill:#ffc907"></path>
    <path d="M327.77 541.12h19.1c1.41 0 2.79.48 3.89 1.36l35.58 28.45h-62.64v-25.74c0-2.25 1.82-4.07 4.07-4.07ZM264.44 541.12h49.23c1.76 0 3.18 1.42 3.18 3.18v26.63h-55.59v-26.63c0-1.76 1.42-3.18 3.18-3.18ZM227.02 570.93h26.18s0-27.2 0-27.2c0-1.44-1.17-2.61-2.61-2.61h-25.61c-2.75 0-4.76 2.58-4.1 5.25l6.14 24.56Z" style="fill:#d0e7ff"></path>
    <rect width="18.9" height="3.93" x="326.5" y="579.08" rx="1.35" ry="1.35" style="fill:#e5b10a" transform="rotate(180 335.955 581.04)"></rect>
    <rect width="18.9" height="3.93" x="263.12" y="579.08" rx="1.35" ry="1.35" style="fill:#e5b10a" transform="rotate(180 272.575 581.04)"></rect>
    <g>
      <circle cx="246.48" cy="622.45" r="27.63"></circle>
      <circle cx="246.48" cy="622.45" r="15.01" style="fill:#8e8e8e"></circle>
    </g>
    <g>
      <circle cx="428.1" cy="622.45" r="27.63"></circle>
      <circle cx="428.1" cy="622.45" r="15.01" style="fill:#8e8e8e"></circle>
    </g>
    <rect width=".75" height="46.68" x="385.59" y="570.93" style="fill:#e5b10a"></rect>
    <rect width=".75" height="46.68" x="323.7" y="570.93" style="fill:#e5b10a"></rect>
    <path d="M261.26,570.93v21.44c.25.13.5.26.75.41v-21.85s-.75,0-.75,0Z" style="fill:#e5b10a"></path>
    <rect width=".75" height="46.68" x="316.11" y="570.93" style="fill:#e5b10a"></rect>
    <path d="M181.16 618.86c-.1-.92-.63-1.7-1.38-2.16 1-.84 1.66-2.08 1.66-3.5 0-1.99-1.28-3.67-3.06-4.29.88-1.03 1.42-2.36 1.42-3.82 0-3.25-2.63-5.88-5.88-5.88-.49 0-.96.07-1.41.18 0-.06 0-.12 0-.18 0-3.51-2.05-6.54-5.01-7.97.16-.61.25-1.25.25-1.92 0-4.17-3.38-7.56-7.56-7.56-3.26 0-6.03 2.07-7.09 4.96-.78-.19-1.59-.29-2.43-.29-5.77 0-10.45 5.01-10.45 10.78s4.68 10.78 10.45 10.78h.01s-.01-.26-.01-.23c0 2.88 2.34 5.06 5.22 5.06.93 0 1.79-.35 2.55-.77.28 4.02 3.62 7.16 7.72 7.16.94 0 1.84-.2 2.67-.5.42 1.8 2.02 3.14 3.95 3.14 1.18 0 2.23-.51 2.97-1.31.49.91 1.43 1.53 2.54 1.53.07 0 .13-.02.19-.02.36.83 1.18 1.41 2.14 1.41 1.29 0 2.33-1.04 2.33-2.33 0-1.11-.77-2.03-1.8-2.27ZM152.54 574.71c-.4-.83-.37-1.78.03-2.56-1.3-.18-2.51-.89-3.26-2.09-1.06-1.69-.86-3.79.32-5.26-1.29-.4-2.45-1.25-3.23-2.49-1.72-2.75-.88-6.38 1.87-8.1.41-.26.85-.45 1.29-.6-.03-.05-.07-.09-.1-.15-1.86-2.98-1.73-6.63.03-9.42-.46-.43-.88-.93-1.23-1.49-2.21-3.54-1.14-8.2 2.4-10.41 2.76-1.73 6.21-1.44 8.64.45.56-.57 1.19-1.09 1.9-1.54 4.89-3.06 11.47-1.35 14.53 3.54s1.7 11.55-3.19 14.61h0s-.09-.16-.07-.12c1.53 2.45.72 5.56-1.73 7.09-.79.49-1.69.67-2.56.71 1.9 3.56.73 8-2.74 10.17-.8.5-1.66.81-2.53.99.6 1.75-.05 3.74-1.69 4.76-1 .62-2.16.75-3.21.46.07 1.03-.41 2.05-1.34 2.64-.06.03-.12.05-.17.08.14.89-.26 1.82-1.07 2.33-1.09.68-2.53.35-3.21-.74-.59-.94-.42-2.13.33-2.88Z" style="fill:#8e8e8e;opacity:.5"></path>
  </g>
</svg>
